<svg height="511pt" viewBox="0 -36 511.99964 511" width="511pt" xmlns="http://www.w3.org/2000/svg"><g fill-rule="evenodd"><path d="m87.625 156.941406c-17.914062 7.230469-33.871094 22.820313-40.789062 51.367188l-36.109376 149.070312c-22.367187 92.242188 78.769532 90.738282 96.375 43.882813l17.316407-46.207031c4.226562-11.253907 10.234375-15.164063 19.957031-7.851563 22.902344 21.089844 59.921875 18.113281 82.597656-3.457031h58.054688c22.675781 21.570312 59.667968 24.546875 82.597656 3.457031 9.722656-7.3125 15.703125-3.402344 19.953125 7.851563l17.320313 46.207031c17.601562 46.855469 118.738281 48.359375 96.375-43.882813l-36.113282-149.070312c-6.914062-28.546875-22.875-44.136719-40.789062-51.367188-20.351563-8.21875-43.285156-5.640625-58.390625 1.019532-8.902344 3.914062-15.082031 9.269531-16.441407 14.628906v22.820312c0 12.554688-10.261718 22.84375-22.820312 22.84375h-141.441406c-12.558594 0-22.847656-10.289062-22.847656-22.84375v-22.820312c-1.332032-5.359375-7.511719-10.714844-16.410157-14.628906-15.109375-6.660157-38.011719-9.238282-58.394531-1.019532zm0 0" fill="#616d80"/><path d="m162.429688 172.589844v22.820312c0 12.554688 10.289062 22.84375 22.847656 22.84375h141.445312c12.558594 0 22.816406-10.289062 22.816406-22.84375v-22.820312zm0 0" fill="#e6e6e6"/><path d="m108.433594 128.199219c-11.453125 0-20.808594 9.382812-20.808594 20.804687v7.9375c20.382812-8.21875 43.285156-5.640625 58.394531 1.019532v-8.957032c0-11.421875-9.355469-20.804687-20.808593-20.804687zm0 0" fill="#b3b3b3"/><path d="m386.785156 128.199219c-11.449218 0-20.804687 9.382812-20.804687 20.804687v8.957032c15.109375-6.660157 38.039062-9.238282 58.390625-1.019532v-7.9375c0-11.421875-9.351563-20.804687-20.777344-20.804687zm0 0" fill="#b3b3b3"/><path d="m68.179688 243.996094c0 8.53125 6.972656 15.503906 15.507812 15.503906h9.777344v9.78125c0 8.53125 6.972656 15.503906 15.503906 15.503906s15.507812-6.972656 15.507812-15.503906v-9.78125h9.777344c8.53125 0 15.503906-6.972656 15.503906-15.503906 0-8.535156-6.972656-15.507813-15.503906-15.507813h-9.777344v-9.78125c0-8.53125-6.976562-15.503906-15.507812-15.503906s-15.503906 6.972656-15.503906 15.503906v9.78125h-9.777344c-8.535156 0-15.507812 6.972657-15.507812 15.507813zm0 0" fill="#e6e6e6"/><path d="m401.382812 259.359375c-6.660156 0-12.015624 5.386719-12.015624 12.019531 0 6.632813 5.355468 12.019532 12.015624 12.019532 6.636719 0 11.992188-5.386719 11.992188-12.019532 0-6.632812-5.355469-12.019531-11.992188-12.019531zm0 0" fill="#e6e6e6"/><path d="m358.496094 240.535156c0 6.632813 5.386718 12.019532 12.019531 12.019532 6.660156 0 12.019531-5.386719 12.019531-12.019532 0-6.632812-5.355468-12.015625-12.019531-12.015625-6.632813 0-12.019531 5.382813-12.019531 12.015625zm0 0" fill="#e6e6e6"/><path d="m389.367188 209.695312c0 6.632813 5.355468 12.019532 12.019531 12.019532 6.632812 0 11.988281-5.386719 11.988281-12.019532 0-6.632812-5.355469-12.019531-11.988281-12.019531-6.664063 0-12.019531 5.386719-12.019531 12.019531zm0 0" fill="#e6e6e6"/><path d="m420.207031 240.535156c0 6.632813 5.386719 12.019532 12.019531 12.019532 6.632813 0 12.019532-5.386719 12.019532-12.019532 0-6.632812-5.386719-12.015625-12.019532-12.015625-6.632812 0-12.019531 5.382813-12.019531 12.015625zm0 0" fill="#e6e6e6"/><path d="m186.070312 276.734375c-15.476562 0-28.035156 12.558594-28.035156 28.035156 0 15.476563 12.558594 28.035157 28.035156 28.035157 15.503907 0 28.035157-12.558594 28.035157-28.035157 0-15.476562-12.53125-28.035156-28.035157-28.035156zm0 0" fill="#e6e6e6"/><path d="m331.796875 276.734375c-15.476563 0-28.035156 12.558594-28.035156 28.035156 0 15.476563 12.558593 28.035157 28.035156 28.035157s28.035156-12.558594 28.035156-28.035157c0-15.476562-12.558593-28.035156-28.035156-28.035156zm0 0" fill="#e6e6e6"/><path d="m106.21875 152.292969v-7.9375c0-6.488281 3.035156-12.328125 7.738281-16.15625h-5.523437c-11.453125 0-20.808594 9.382812-20.808594 20.804687v7.9375c6.066406-2.464844 12.359375-3.9375 18.59375-4.648437zm0 0" fill="#888b99"/><path d="m365.980469 157.964844c5.386719-2.382813 11.734375-4.226563 18.625-5.273438v-8.332031c0-6.492187 3.003906-12.332031 7.710937-16.160156h-5.527344c-11.453124 0-20.808593 9.382812-20.808593 20.804687zm0 0" fill="#888b99"/><path d="m29.320312 352.761719 36.109376-149.105469c6.917968-28.542969 22.875-44.132812 40.789062-51.363281-6.234375.710937-12.527344 2.183593-18.59375 4.648437-17.914062 7.230469-33.875 22.820313-40.789062 51.367188l-36.109376 149.070312c-16.527343 68.175782 34.410157 85.15625 69.21875 70.441406-31.492187 2.863282-64.34375-18.421874-50.625-75.058593zm0 0" fill="#3f4c63"/><path d="m162.429688 195.410156c0 12.554688 10.289062 22.84375 22.847656 22.84375h21.457031c-12.554687 0-22.816406-10.289062-22.816406-22.84375v-22.820312h-21.484375v22.820312zm0 0" fill="#b3b3b3"/><path d="m158.035156 304.769531c0 15.476563 12.558594 28.035157 28.035156 28.035157 1.730469 0 3.429688-.140626 5.046876-.453126-13.066407-2.382812-22.960938-13.804687-22.960938-27.582031 0-13.746093 9.894531-25.199219 22.960938-27.582031-1.617188-.28125-3.316407-.453125-5.046876-.453125-15.476562 0-28.035156 12.558594-28.035156 28.035156zm0 0" fill="#b3b3b3"/><path d="m303.761719 304.769531c0 15.476563 12.558593 28.035157 28.035156 28.035157 1.730469 0 3.429687-.140626 5.046875-.453126-13.066406-2.382812-22.988281-13.804687-22.988281-27.582031 0-13.746093 9.921875-25.199219 22.988281-27.582031-1.617188-.28125-3.316406-.453125-5.046875-.453125-15.476563 0-28.035156 12.558594-28.035156 28.035156zm0 0" fill="#b3b3b3"/></g><path d="m257.386719 81.128906c-24.328125 0-45.113281 10.46875-54.238281 27.3125-1.976563 3.640625-.621094 8.191406 3.019531 10.164063 3.640625 1.976562 8.191406.621093 10.164062-3.019531 6.40625-11.820313 22.519531-19.460938 41.054688-19.460938 18.539062 0 34.652343 7.640625 41.058593 19.460938 1.359376 2.507812 3.9375 3.929687 6.597657 3.929687 1.207031 0 2.433593-.292969 3.566406-.90625 3.640625-1.972656 4.992187-6.523437 3.019531-10.167969-9.125-16.84375-29.910156-27.3125-54.242187-27.3125zm0 0"/><path d="m333.90625 90.472656c1.359375 2.503906 3.9375 3.925782 6.597656 3.925782 1.207032 0 2.433594-.292969 3.566406-.90625 3.640626-1.972657 4.992188-6.523438 3.019532-10.164063-14.949219-27.589844-49.320313-44.722656-89.703125-44.722656-40.378907 0-74.75 17.136719-89.699219 44.722656-1.972656 3.640625-.621094 8.191406 3.019531 10.164063 3.640625 1.972656 8.191407.621093 10.164063-3.019532 12.324218-22.742187 41.644531-36.871094 76.515625-36.871094 34.875 0 64.195312 14.125 76.519531 36.871094zm0 0"/><path d="m133.117188 73.816406c3.644531 1.976563 8.191406.625 10.167968-3.015625 18.5-34.113281 62.222656-55.304687 114.105469-55.304687 51.878906 0 95.601563 21.191406 114.105469 55.304687 1.355468 2.503907 3.933594 3.925781 6.597656 3.925781 1.207031 0 2.429688-.292968 3.566406-.910156 3.640625-1.972656 4.992188-6.523437 3.015625-10.164062-21.125-38.953125-69.898437-63.152344-127.285156-63.152344s-106.160156 24.199219-127.289063 63.152344c-1.972656 3.640625-.621093 8.191406 3.015626 10.164062zm0 0"/><path d="m401.382812 229.210938c10.746094 0 19.488282-8.753907 19.488282-19.515626 0-10.761718-8.742188-19.515624-19.488282-19.515624-10.757812 0-19.515624 8.753906-19.515624 19.515624 0 10.761719 8.757812 19.515626 19.515624 19.515626zm0-24.035157c2.480469 0 4.492188 2.027344 4.492188 4.519531 0 2.453126-2.054688 4.523438-4.492188 4.523438-2.492187 0-4.519531-2.03125-4.519531-4.523438 0-2.492187 2.03125-4.519531 4.519531-4.519531zm0 0"/><path d="m401.382812 251.859375c-10.757812 0-19.515624 8.757813-19.515624 19.519531 0 10.761719 8.757812 19.515625 19.515624 19.515625 10.746094 0 19.488282-8.753906 19.488282-19.515625 0-10.761718-8.742188-19.519531-19.488282-19.519531zm0 24.039063c-2.492187 0-4.519531-2.027344-4.519531-4.519532 0-2.492187 2.027344-4.523437 4.519531-4.523437 2.4375 0 4.492188 2.070312 4.492188 4.523437.003906 2.492188-2.011719 4.519532-4.492188 4.519532zm0 0"/><path d="m390.03125 240.535156c0-10.757812-8.753906-19.515625-19.515625-19.515625s-19.515625 8.753907-19.515625 19.515625c0 10.761719 8.753906 19.519532 19.515625 19.519532s19.515625-8.757813 19.515625-19.519532zm-19.515625 4.523438c-2.492187 0-4.519531-2.027344-4.519531-4.523438 0-2.492187 2.027344-4.519531 4.519531-4.519531s4.523437 2.027344 4.523437 4.519531c0 2.496094-2.03125 4.523438-4.523437 4.523438zm0 0"/><path d="m432.226562 221.019531c-10.761718 0-19.519531 8.753907-19.519531 19.515625 0 10.761719 8.757813 19.519532 19.519531 19.519532 10.761719 0 19.515626-8.757813 19.515626-19.519532 0-10.757812-8.753907-19.515625-19.515626-19.515625zm0 24.039063c-2.492187 0-4.523437-2.027344-4.523437-4.523438 0-2.492187 2.03125-4.519531 4.523437-4.519531 2.492188 0 4.519532 2.027344 4.519532 4.519531 0 2.496094-2.027344 4.523438-4.519532 4.523438zm0 0"/><path d="m186.070312 269.238281c-19.589843 0-35.53125 15.9375-35.53125 35.53125s15.941407 35.53125 35.53125 35.53125c19.59375 0 35.53125-15.941406 35.53125-35.53125 0-19.59375-15.9375-35.53125-35.53125-35.53125zm0 56.070313c-11.324218 0-20.535156-9.214844-20.535156-20.539063s9.210938-20.535156 20.535156-20.535156c11.324219 0 20.539063 9.210937 20.539063 20.535156s-9.214844 20.539063-20.539063 20.539063zm0 0"/><path d="m508.5625 355.617188-36.113281-149.078126c-5.195313-21.441406-15.511719-37.785156-30.664063-48.578124-3.125-2.226563-6.441406-4.191407-9.914062-5.886719v-3.070313c0-15.605468-12.683594-28.300781-28.273438-28.300781h-16.808594c-15.609374 0-28.304687 12.695313-28.304687 28.300781v4.332032c-6.050781 3.296874-10.828125 7.316406-13.695313 11.757812h-72.320312c-4.140625 0-7.5 3.355469-7.5 7.496094s3.359375 7.5 7.5 7.5h69.574219v15.320312c0 8.464844-6.875 15.351563-15.320313 15.351563h-141.445312c-8.460938 0-15.347656-6.886719-15.347656-15.351563v-15.320312h67.902343c4.140625 0 7.496094-3.359375 7.496094-7.5s-3.355469-7.496094-7.496094-7.496094h-70.648437c-2.859375-4.433594-7.625-8.449219-13.667969-11.746094v-4.34375c0-15.605468-12.695313-28.304687-28.304687-28.304687h-16.777344c-15.609375 0-28.304688 12.699219-28.304688 28.304687v3.066406c-3.464844 1.695313-6.769531 3.65625-9.890625 5.875-15.164062 10.789063-25.488281 27.140626-30.6875 48.59375l-36.113281 149.074219c-5.316406 21.933594-4.460938 40.488281 2.539062 55.152344 6.261719 13.109375 17.121094 22.363281 31.40625 26.753906 30.613282 9.414063 66.457032-6.296875 76.707032-33.621093l17.347656-46.207032c2.230469-5.945312 4-6.699218 4.019531-6.707031.203125-.046875 1.5625.128906 4.140625 2.011719 24.292969 22.058594 64.078125 21.105468 90.277344-1.753906h52.246094c12.121094 10.582031 27.523437 16.847656 43.703125 17.71875 17.664062.949218 34.179687-4.71875 46.574219-15.964844 2.90625-2.125 4.121093-2.023438 4.132812-2.011719.015625.007813 1.78125.757813 4.027344 6.703125l17.320312 46.210938c8.234375 21.921874 32.933594 36.367187 58.183594 36.363281 6.234375 0 12.503906-.878907 18.566406-2.746094 14.28125-4.394531 25.136719-13.648437 31.394532-26.761719 7-14.660156 7.855468-33.210937 2.539062-55.136718zm-121.777344-219.921876h16.808594c6.511719 0 11.933594 4.722657 13.058594 10.929688-6.222656-1.511719-12.757813-2.308594-19.511719-2.332031-.105469 0-.207031 0-.308594 0-8.121093 0-16.046875 1.117187-23.246093 3.085937.808593-6.570312 6.414062-11.683594 13.199218-11.683594zm-278.351562 0h16.777344c6.789062 0 12.394531 5.113282 13.199218 11.6875-7.195312-1.96875-15.125-3.089843-23.246094-3.089843-.085937 0-.171874 0-.257812 0-6.769531.019531-13.320312.816406-19.558594 2.332031 1.128906-6.207031 6.558594-10.929688 13.085938-10.929688zm361.785156 287.488282c-20.761719 6.390625-50.109375-2.753906-58.296875-24.554688l-17.328125-46.222656c-3.367188-8.914062-7.910156-14.085938-13.886719-15.820312-5.476562-1.59375-11.394531-.03125-17.589843 4.628906-.195313.148437-.386719.308594-.566407.472656-19.292969 17.742188-51.753906 16.230469-72.355469-3.371094-1.394531-1.328125-3.246093-2.066406-5.167968-2.066406h-58.054688c-1.921875 0-3.773437.738281-5.167968 2.066406-20.617188 19.613282-53.074219 21.128906-72.351563 3.375-.183594-.167968-.375-.328125-.574219-.476562-6.203125-4.667969-12.128906-6.222656-17.617187-4.625-5.984375 1.742187-10.519531 6.921875-13.863281 15.832031l-17.347657 46.207031c-8.175781 21.800782-37.503906 30.945313-58.261719 24.5625-23.246093-7.152344-31.914062-30.492187-23.78125-64.042968l36.113282-149.074219c6.523437-26.917969 21.007812-39.867188 35.425781-45.890625.605469-.160156 1.183594-.390625 1.71875-.691406 8.601563-3.273438 17.066406-4.183594 23.683594-4.203126 11.195312-.015624 20.851562 2.386719 27.902343 5.464844.121094.054688.242188.113282.371094.164063 6.410156 2.855469 10.585938 6.257812 11.707032 8.855469v21.636718c0 16.730469 13.613281 30.34375 30.34375 30.34375h141.445312c16.714844 0 30.316406-13.613281 30.316406-30.34375v-21.632812c1.109375-2.566406 5.195313-5.921875 11.460938-8.757813.367187-.132812.722656-.28125 1.058594-.464843 6.964843-2.972657 16.367187-5.265626 27.257812-5.265626h.269531c6.609375.023438 15.066407.9375 23.65625 4.210938.527344.292969 1.097657.519531 1.695313.679688 14.421875 6.019531 28.914062 18.96875 35.4375 45.890624l36.113281 149.078126c8.136719 33.542968-.527344 56.882812-23.765625 64.035156zm0 0"/><path d="m331.796875 269.238281c-19.59375 0-35.53125 15.9375-35.53125 35.53125s15.9375 35.53125 35.53125 35.53125c19.589844 0 35.53125-15.941406 35.53125-35.53125 0-19.59375-15.941406-35.53125-35.53125-35.53125zm0 56.070313c-11.324219 0-20.535156-9.214844-20.535156-20.539063s9.210937-20.535156 20.535156-20.535156 20.535156 9.210937 20.535156 20.535156-9.210937 20.539063-20.535156 20.539063zm0 0"/><path d="m134.253906 220.992188h-2.28125v-2.28125c0-12.683594-10.320312-23.003907-23.003906-23.003907s-23.003906 10.320313-23.003906 23.003907v2.28125h-2.28125c-12.683594 0-23 10.320312-23 23.003906s10.316406 23.003906 23 23.003906h2.28125v2.28125c0 12.683594 10.320312 23.003906 23.003906 23.003906s23.003906-10.320312 23.003906-23.003906v-2.28125h2.28125c12.683594 0 23.003906-10.320312 23.003906-23.003906s-10.320312-23.003906-23.003906-23.003906zm0 31.011718h-9.777344c-4.140624 0-7.5 3.355469-7.5 7.496094v9.78125c0 4.414062-3.589843 8.007812-8.007812 8.007812-4.414062 0-8.003906-3.59375-8.003906-8.007812v-9.78125c0-4.140625-3.359375-7.496094-7.5-7.496094h-9.777344c-4.414062 0-8.007812-3.59375-8.007812-8.007812 0-4.414063 3.59375-8.007813 8.007812-8.007813h9.777344c4.140625 0 7.5-3.359375 7.5-7.5v-9.777343c0-4.417969 3.589844-8.007813 8.003906-8.007813 4.417969 0 8.007812 3.589844 8.007812 8.007813v9.777343c0 4.140625 3.359376 7.5 7.5 7.5h9.777344c4.414063 0 8.007813 3.59375 8.007813 8.007813 0 4.414062-3.589844 8.007812-8.007813 8.007812zm0 0"/><path d="m236.328125 248.742188h-10.886719c-4.140625 0-7.496094 3.359374-7.496094 7.5 0 4.140624 3.355469 7.496093 7.496094 7.496093h10.886719c4.140625 0 7.496094-3.355469 7.496094-7.496093 0-4.140626-3.355469-7.5-7.496094-7.5zm0 0"/><path d="m286.558594 248.742188h-10.914063c-4.140625 0-7.5 3.359374-7.5 7.5 0 4.140624 3.359375 7.496093 7.5 7.496093h10.914063c4.140625 0 7.496094-3.355469 7.496094-7.496093 0-4.140626-3.355469-7.5-7.496094-7.5zm0 0"/><path d="m264.332031 288.03125h-10.882812c-4.140625 0-7.5 3.355469-7.5 7.496094s3.359375 7.5 7.5 7.5h10.882812c4.144531 0 7.5-3.359375 7.5-7.5s-3.355469-7.496094-7.5-7.496094zm0 0"/></svg>